<svg width="1024" height="1024" viewBox="0 0 1024 1024" fill="none" xmlns="http://www.w3.org/2000/svg">
<path d="M507.437 241.687C508.624 241.689 509.81 241.69 511.033 241.692C529.221 241.733 546.978 242.416 565 245C567.219 245.293 569.437 245.586 571.656 245.879C650.291 256.726 724.238 292.139 784 344C784.7 344.599 785.4 345.199 786.121 345.816C798.807 356.761 811.44 368.251 822.309 381.031C824.239 383.278 826.244 385.446 828.25 387.625C833.307 393.238 837.957 399.127 842.554 405.117C843.516 406.37 844.481 407.62 845.45 408.867C883.459 457.868 910.523 517.231 923 578C923.217 579.021 923.434 580.043 923.658 581.096C926.62 595.187 928.66 609.324 930.25 623.625C930.333 624.368 930.416 625.111 930.502 625.876C932.353 642.66 933.203 659.364 933.24 676.25C933.25 678.959 933.281 681.668 933.312 684.377C933.38 695.538 933.424 705.926 926 715C919.814 721.14 914.3 724.323 905.462 724.41C904.474 724.405 903.486 724.4 902.468 724.394C901.408 724.4 900.347 724.406 899.255 724.413C895.701 724.429 892.148 724.425 888.594 724.42C886.047 724.427 883.499 724.436 880.951 724.445C874.748 724.465 868.546 724.471 862.343 724.469C857.3 724.468 852.257 724.472 847.214 724.479C845.76 724.481 844.306 724.483 842.853 724.485C841.767 724.487 841.767 724.487 840.66 724.489C826.98 724.507 813.299 724.506 799.619 724.5C787.113 724.494 774.606 724.515 762.1 724.548C749.25 724.582 736.401 724.597 723.551 724.592C716.34 724.59 709.13 724.595 701.919 724.62C695.137 724.643 688.355 724.641 681.573 724.62C679.085 724.617 676.597 724.622 674.11 724.636C670.71 724.654 667.312 724.642 663.912 724.621C662.931 724.634 661.95 724.646 660.939 724.659C652.649 724.553 646.526 721.782 640.687 715.875C633.889 707.097 633.381 696.751 633 686.062C632.41 673.76 631.134 661.944 628 650C627.821 649.31 627.642 648.62 627.457 647.909C618.639 614.955 597.883 582.527 568 565C539.321 549.224 507.965 544.451 476.18 553.031C452.512 560.344 431.521 574.812 417 595C416.611 595.536 416.222 596.071 415.821 596.623C396.097 624.054 386.963 656.975 386.658 690.537C386.387 700.88 384.15 709.717 376.867 717.344C371.714 721.915 366.385 724.118 359.516 724.134C358.618 724.138 357.72 724.143 356.794 724.148C355.812 724.147 354.829 724.147 353.816 724.147C352.769 724.151 351.722 724.154 350.643 724.158C347.122 724.169 343.602 724.173 340.081 724.177C337.561 724.183 335.042 724.19 332.522 724.197C324.954 724.216 317.386 724.227 309.817 724.235C306.252 724.24 302.686 724.245 299.121 724.25C287.267 724.267 275.414 724.282 263.56 724.289C260.485 724.291 257.41 724.293 254.335 724.295C253.571 724.295 252.807 724.296 252.02 724.296C239.638 724.305 227.258 724.33 214.877 724.363C202.162 724.396 189.447 724.414 176.731 724.417C169.594 724.419 162.456 724.428 155.319 724.453C148.605 724.477 141.891 724.481 135.177 724.471C132.713 724.47 130.249 724.476 127.785 724.49C124.42 724.508 121.057 724.501 117.692 724.488C116.718 724.499 115.744 724.51 114.74 724.521C107.407 724.452 102.203 722.698 96.5741 717.957C95.9515 717.249 95.3289 716.541 94.6874 715.812C94.0519 715.118 93.4164 714.423 92.7616 713.707C88.3509 706.929 87.5483 699.881 87.6015 691.957C87.5972 691.008 87.593 690.058 87.5887 689.08C87.5823 685.991 87.6012 682.902 87.6249 679.812C87.6296 678.748 87.6342 677.683 87.639 676.586C87.8468 635.865 91.6872 595.256 103 556C103.323 554.876 103.647 553.752 103.98 552.594C121.494 492.558 149.973 438.02 190 390C190.42 389.495 190.839 388.99 191.271 388.469C198.552 379.736 206.196 371.486 214.264 363.475C216.072 361.678 217.869 359.87 219.666 358.06C226.473 351.246 233.444 344.983 241 339C242.102 338.065 243.198 337.124 244.285 336.172C269.499 314.185 298.881 296.397 329 282C329.938 281.546 329.938 281.546 330.896 281.083C344.304 274.612 358.038 269.237 372.098 264.367C375.154 263.306 378.171 262.168 381.187 261C401.994 253.437 424.27 248.975 446.125 245.812C447.73 245.58 447.73 245.58 449.368 245.343C452.908 244.857 456.451 244.419 460 244C461.104 243.867 461.104 243.867 462.23 243.732C477.305 241.969 492.27 241.64 507.437 241.687Z" fill="#2D1647"/>
<path d="M507.087 263.684C510.799 263.688 514.509 263.664 518.221 263.639C542.167 263.576 565.527 266.366 589 271C589.978 271.189 590.956 271.377 591.963 271.572C624.267 277.946 656.836 289.642 685.985 304.948C688.114 306.06 690.255 307.146 692.398 308.231C711.958 318.215 730.513 329.716 748 343C748.622 343.47 749.243 343.94 749.884 344.424C774.542 363.161 797.89 384.575 817 409C817.841 410.05 818.684 411.1 819.527 412.148C842.901 441.352 862.686 473.376 877 508C877.391 508.942 877.782 509.883 878.185 510.853C893.769 548.805 903.45 588.252 908 629C908.086 629.734 908.173 630.467 908.262 631.223C909.878 645.109 910.314 658.863 910.261 672.837C910.25 676.25 910.261 679.663 910.273 683.076C910.272 685.253 910.27 687.429 910.266 689.606C910.27 690.623 910.274 691.641 910.278 692.689C910.272 693.622 910.265 694.555 910.259 695.516C910.256 696.747 910.256 696.747 910.254 698.003C910 700 910 700 908 702C906.051 702.241 906.051 702.241 903.642 702.227C902.741 702.227 901.841 702.227 900.912 702.227C899.938 702.216 898.964 702.206 897.961 702.195C896.965 702.193 895.969 702.19 894.943 702.187C891.753 702.176 888.564 702.15 885.375 702.125C883.216 702.115 881.057 702.106 878.898 702.098C873.599 702.076 868.299 702.042 863 702C862.991 700.896 862.981 699.793 862.972 698.656C862.5 650.847 858.136 604.605 843 559C842.478 557.42 842.478 557.42 841.946 555.808C836.669 540.045 830.295 524.93 823 510C822.538 509.049 822.075 508.098 821.599 507.119C811.585 486.732 799.822 467.058 785.277 449.564C783.951 447.94 782.676 446.285 781.41 444.613C774.218 435.151 766.262 426.536 758 418C757.19 417.161 756.381 416.322 755.547 415.457C751.23 411.063 746.686 406.994 742 403C740.598 401.782 740.598 401.782 739.168 400.539C726.199 389.333 712.454 379.207 698 370C697.425 369.633 696.85 369.267 696.258 368.889C619.659 320.507 525.104 302.015 436.413 321.8C384.032 333.978 333.646 356.6 292 391C291.479 391.428 290.957 391.856 290.42 392.297C275.013 404.984 259.703 418.46 247.293 434.148C245.179 436.777 242.993 439.308 240.764 441.837C228.015 456.37 217.59 472.25 208 489C207.506 489.85 207.013 490.7 206.504 491.576C169.007 556.443 159.116 628.306 158 702C151.486 702.076 144.971 702.129 138.457 702.165C136.239 702.18 134.022 702.2 131.804 702.226C128.622 702.263 125.44 702.28 122.258 702.293C120.764 702.316 120.764 702.316 119.24 702.34C117.859 702.34 117.859 702.34 116.45 702.341C115.637 702.347 114.824 702.354 113.987 702.361C113.331 702.242 112.676 702.123 112 702C109.475 698.213 109.695 695.174 109.699 690.785C109.694 689.955 109.688 689.125 109.682 688.27C109.67 685.534 109.677 682.799 109.688 680.063C109.689 679.123 109.691 678.184 109.693 677.216C109.989 586.43 136.822 496.751 216 394C216.69 393.223 216.69 393.223 217.395 392.43C228.865 379.598 240.811 366.632 254.41 356.039C256.752 354.195 258.983 352.263 261.213 350.286C278.063 335.507 297.442 323.798 317 313C317.997 312.447 318.995 311.894 320.022 311.325C358.67 290.085 400.868 275.632 444.312 268.188C445.442 267.993 446.572 267.797 447.736 267.596C467.435 264.427 487.161 263.649 507.087 263.684Z" fill="#FD4026"/>
<path d="M713 407C714.016 407.824 715.031 408.648 716.078 409.496C734.12 424.347 750.506 440.715 764.684 459.286C765.962 460.95 767.257 462.6 768.558 464.246C782.614 482.093 794.243 501.593 804.061 522.063C804.98 523.96 805.928 525.839 806.883 527.719C827.009 568.043 838.237 614.768 840.562 659.625C840.605 660.444 840.647 661.263 840.691 662.107C841.288 675.392 841.058 688.707 841 702C825.16 702 809.32 702 793 702C792.897 697.731 792.794 693.461 792.687 689.063C789.821 598.107 758.025 518.976 692 456C688.493 452.79 684.779 449.882 681 447C679.763 446.013 678.527 445.025 677.293 444.035C654.342 425.824 628.527 411.953 601 402C600.074 401.664 599.149 401.328 598.195 400.981C569.728 390.826 539.709 385.557 509.5 385.688C508.185 385.69 508.185 385.69 506.844 385.693C492.7 385.742 478.946 386.498 465 389C464.065 389.156 463.13 389.311 462.167 389.472C437.51 393.641 413.369 401.861 391 413C389.712 413.636 389.712 413.636 388.397 414.285C376.068 420.418 364.348 427.201 353 435C351.997 435.687 350.994 436.374 349.961 437.082C342.608 442.284 335.785 448.089 329 454C327.718 455.112 327.718 455.112 326.41 456.246C316.61 464.903 307.268 474.021 299.156 484.293C297.717 486.099 296.237 487.874 294.719 489.613C265.266 523.416 246.455 566.778 236 610C235.811 610.764 235.622 611.528 235.427 612.315C228.352 641.582 227.475 672.056 227 702C211.16 702 195.32 702 179 702C178.463 642.73 185.493 587.571 210 533C210.384 532.135 210.769 531.27 211.165 530.379C221.592 507.132 234.482 485.214 250 465C250.478 464.368 250.955 463.736 251.448 463.086C257.072 455.652 262.997 448.613 269.371 441.813C271.851 439.159 274.275 436.465 276.687 433.75C282.34 427.463 288.221 421.516 294.648 416.02C296.422 414.496 298.173 412.948 299.914 411.387C349.363 367.377 415.139 344.02 480 336C480.842 335.894 481.684 335.788 482.552 335.679C562.777 326.545 651.101 356.646 713 407Z" fill="#FD9F0A"/>
<path d="M494.562 407.797C495.913 407.786 495.913 407.786 497.292 407.776C500.195 407.758 503.097 407.752 506 407.75C506.99 407.749 507.98 407.749 509 407.748C523.867 407.764 538.364 408.137 553 411C553.864 411.166 554.727 411.333 555.617 411.504C596.718 419.726 636.765 438.144 669 465C669.554 465.453 670.108 465.906 670.68 466.372C684.713 477.843 698.006 490.562 709 505C709.891 506.117 710.783 507.233 711.676 508.348C755.012 563.322 772.168 633.05 771 702C755.16 702 739.32 702 723 702C722.752 695.957 722.505 689.914 722.25 683.688C719.469 625.372 702.002 572.101 663 528C662.529 527.466 662.058 526.931 661.572 526.381C656.057 520.159 650.44 514.279 644 509C642.872 508.037 641.744 507.074 640.617 506.109C598.389 470.433 544.981 453.447 489.921 457.462C444.952 461.438 402.303 481.511 369.648 512.527C367.749 514.3 365.859 515.966 363.855 517.609C360.095 520.758 357.137 524.244 354 528C353.547 528.524 353.095 529.049 352.628 529.589C339.257 545.087 328.448 562.358 320 581C319.666 581.734 319.333 582.468 318.99 583.224C311.869 599.093 306.592 614.981 303.25 632.063C303.051 633.078 302.852 634.093 302.648 635.139C299.671 651.253 298.672 667.268 298.375 683.625C298.251 689.689 298.127 695.753 298 702C281.83 702 265.66 702 249 702C247.973 636.52 261.2 572.203 300 518C301.106 516.453 301.106 516.453 302.234 514.875C315.719 496.513 331.139 479.192 349 465C349.614 464.511 350.228 464.022 350.861 463.518C387.545 434.584 430.681 415.489 477 409C478.838 408.736 478.838 408.736 480.713 408.467C485.331 407.9 489.914 407.821 494.562 407.797Z" fill="#FBCF08"/>
<path d="M537 478C538.854 478.292 538.854 478.292 540.746 478.59C550.853 480.397 560.371 483.519 570 487C570.639 487.225 571.278 487.45 571.937 487.682C588.913 493.72 604.853 502.876 619 514C619.531 514.417 620.062 514.834 620.609 515.263C634.787 526.537 647.271 539.421 658 554C658.947 555.272 658.947 555.272 659.914 556.57C679.044 583.038 692.434 614.36 697.61 646.618C698.002 649.011 698.447 651.39 698.898 653.773C701.733 669.766 701.296 685.823 701 702C695.074 702.074 689.147 702.128 683.22 702.165C681.204 702.18 679.187 702.2 677.171 702.226C674.274 702.263 671.377 702.28 668.48 702.293C667.126 702.316 667.126 702.316 665.743 702.34C664.903 702.34 664.062 702.34 663.196 702.34C662.087 702.35 662.087 702.35 660.955 702.361C658.425 701.894 657.55 701.021 656 699C655.539 696.239 655.539 696.239 655.41 692.883C655.351 691.646 655.291 690.41 655.229 689.136C655.19 688.155 655.19 688.155 655.149 687.153C653.12 639.476 635.261 594.319 600.188 561.25C582.458 546.077 561.597 534.79 539 529C537.76 528.662 536.52 528.324 535.242 527.976C522.062 524.926 508.438 525.531 495 526C493.841 526.04 493.841 526.04 492.659 526.08C461.944 527.579 430.981 546.306 410.129 567.941C408.348 569.911 406.667 571.932 405 574C404.23 574.943 403.461 575.887 402.668 576.859C396.317 584.791 390.95 593.133 386 602C385.456 602.973 384.912 603.946 384.352 604.949C377.084 618.735 372.182 633.777 369 649C368.724 650.277 368.448 651.555 368.164 652.871C365.85 664.561 365.285 676.393 364.734 688.271C364.699 688.956 364.664 689.641 364.628 690.347C364.533 692.234 364.448 694.121 364.363 696.007C364 699 364 699 362 702C360.127 702.361 360.127 702.361 357.826 702.34C356.535 702.34 356.535 702.34 355.217 702.34C354.287 702.324 353.357 702.309 352.398 702.293C351.447 702.289 350.495 702.284 349.515 702.28C346.468 702.263 343.422 702.225 340.375 702.187C338.312 702.172 336.25 702.159 334.187 702.146C329.125 702.113 324.062 702.061 319 702C318.49 676.943 319.454 652.352 326 628C326.21 627.215 326.42 626.43 326.636 625.621C334.407 597.132 346.723 569.62 366 547C366.853 545.965 367.704 544.928 368.555 543.89C378.528 531.797 389.355 521.264 402 512C402.566 511.584 403.133 511.168 403.716 510.739C442.384 482.757 489.769 470.483 537 478Z" fill="#0CAA51"/>
<path d="M157 688C157.33 688 157.66 688 158 688C158 692.62 158 697.24 158 702C142.82 702 127.64 702 112 702C112 701.34 112 700.68 112 700C126.52 700 141.04 700 156 700C156 697.03 156 694.06 156 691C156.33 690.01 156.66 689.02 157 688Z" fill="#F94821"/>
<path d="M910 649C910.33 649 910.66 649 911 649C911.33 651.64 911.66 654.28 912 657C912.33 657 912.66 657 913 657C913 670.86 913 684.72 913 699C912.01 699 911.02 699 910 699C910 682.5 910 666 910 649Z" fill="#3C1946"/>
<path d="M769 675C769.66 675.33 770.32 675.66 771 676C771 684.58 771 693.16 771 702C755.16 702 739.32 702 723 702C723 701.67 723 701.34 723 701C745.275 700.505 745.275 700.505 768 700C768.33 691.75 768.66 683.5 769 675Z" fill="#E2C510"/>
<path d="M762 627C762.99 627.33 763.98 627.66 765 628C765.648 632.166 766.293 636.333 766.938 640.5C767.12 641.673 767.302 642.846 767.49 644.055C770.142 661.222 770.142 661.222 770.188 668.875C770.202 669.986 770.216 671.097 770.23 672.242C770 675 770 675 768 677C767.662 672.667 767.33 668.334 767 664C766.905 662.779 766.809 661.559 766.711 660.301C766.248 654.182 765.877 648.137 766 642C765.34 642 764.68 642 764 642C763.662 640.251 763.33 638.501 763 636.75C762.814 635.775 762.629 634.801 762.438 633.797C762 631 762 631 762 627Z" fill="#F0D40A"/>
<path d="M705 502C709.79 505.373 712.838 509.471 716.188 514.188C716.749 514.973 717.311 515.759 717.889 516.569C721.762 522.066 725.419 527.67 728.875 533.438C729.31 534.153 729.744 534.868 730.192 535.604C731.213 537.356 732.118 539.174 733 541C732.67 541.99 732.34 542.98 732 544C731.359 542.889 730.719 541.778 730.059 540.633C724.608 531.234 719.025 522.167 712.348 513.578C711.887 512.985 711.427 512.393 710.953 511.782C710.041 510.613 709.123 509.448 708.199 508.288C705 504.217 705 504.217 705 502Z" fill="#F2DD07"/>
<path d="M735 396C736.32 396.33 737.64 396.66 739 397C739 397.66 739 398.32 739 399C740.65 399.33 742.3 399.66 744 400C744.33 400.99 744.66 401.98 745 403C745.66 403.33 746.32 403.66 747 404C747 404.66 747 405.32 747 406C749.475 406.99 749.475 406.99 752 408C750.211 408.695 750.211 408.695 748 409C746.289 407.742 746.289 407.742 744.625 405.875C742.372 403.442 740.149 401.204 737.562 399.125C736.717 398.424 735.871 397.723 735 397C735 396.67 735 396.34 735 396Z" fill="#ED4222"/>
<path d="M264 448C264.66 448.33 265.32 448.66 266 449C265.072 450.319 264.132 451.63 263.188 452.938C262.404 454.034 262.404 454.034 261.605 455.152C260 457 260 457 257 458C255.791 460 255.791 460 255 462C254.34 461.67 253.68 461.34 253 461C254.457 459.207 255.916 457.416 257.375 455.625C258.593 454.128 258.593 454.128 259.836 452.602C262 450 262 450 264 448Z" fill="#F8AF07"/>
<path d="M794 457C797.445 459.297 797.606 460.257 799 464C800.009 465.79 801.051 467.561 802.125 469.312C802.933 470.637 802.933 470.637 803.758 471.988C804.168 472.652 804.578 473.316 805 474C804.34 474.33 803.68 474.66 803 475C801.489 472.757 799.991 470.507 798.5 468.25C798.071 467.616 797.641 466.982 797.199 466.328C794.921 462.856 794 461.256 794 457Z" fill="#F44521"/>
<path d="M608 328C616.571 327.857 616.571 327.857 620 329C620 329.66 620 330.32 620 331C622.97 331.495 622.97 331.495 626 332C626 332.66 626 333.32 626 334C619.989 332.37 613.983 330.728 608 329C608 328.67 608 328.34 608 328Z" fill="#E54225"/>
<path d="M799 515C802.212 517.91 804.036 520.618 805.812 524.562C806.472 525.988 806.472 525.988 807.145 527.441C808 530 808 530 807 533C805 532 805 532 804.254 530.145C804.026 529.375 803.798 528.605 803.562 527.812C802.369 523.988 800.829 520.57 799 517C799 516.34 799 515.68 799 515Z" fill="#F5AE07"/>
<path d="M124 498C125.231 500.463 125.072 502.28 125 505C124.361 505.268 123.721 505.536 123.062 505.812C120.669 506.887 120.669 506.887 120 510C120.468 505.224 121.243 501.955 124 498Z" fill="#1C0F30"/>
<path d="M490 454C493.63 454 497.26 454 501 454C498 457 498 457 495.738 457.293C494.938 457.258 494.137 457.223 493.312 457.188C492.1 457.147 492.1 457.147 490.863 457.105C489.941 457.053 489.941 457.053 489 457C489.33 456.01 489.66 455.02 490 454Z" fill="#EFC20A"/>
<path d="M92 609C92.33 609 92.66 609 93 609C93.33 613.29 93.66 617.58 94 622C93.01 621.34 92.02 620.68 91 620C91.33 616.37 91.66 612.74 92 609Z" fill="#382748"/>
<path d="M96 589C96.33 589 96.66 589 97 589C97.0811 590.937 97.1392 592.875 97.1875 594.812C97.2397 596.431 97.2397 596.431 97.293 598.082C97 601 97 601 95.4883 602.887C94.9971 603.254 94.506 603.621 94 604C94.1412 602.062 94.2881 600.125 94.4375 598.188C94.5187 597.109 94.5999 596.03 94.6836 594.918C95 592 95 592 96 589Z" fill="#10091E"/>
<path d="M274 437C274.66 437.33 275.32 437.66 276 438C275.092 439.132 274.173 440.255 273.25 441.375C272.74 442.001 272.229 442.628 271.703 443.273C269.918 445.083 268.321 446.001 266 447C267.651 442.708 270.738 440.121 274 437Z" fill="#FAB605"/>
<path d="M401 404C402.32 404.33 403.64 404.66 405 405C402.65 407.721 400.443 408.967 397 410C396.01 409.67 395.02 409.34 394 409C395.454 408.598 395.454 408.598 396.938 408.188C397.948 407.796 398.959 407.404 400 407C400.33 406.01 400.66 405.02 401 404Z" fill="#F4AC08"/>
<path d="M405 355C404.67 355.66 404.34 356.32 404 357C401.934 357.414 401.934 357.414 399.438 357.625C398.611 357.7 397.785 357.775 396.934 357.852C395.976 357.925 395.976 357.925 395 358C398.181 354.516 400.432 353.582 405 355Z" fill="#F4AA08"/>
<path d="M694 565C695.945 567.918 696.453 569.625 697 573C696.01 573.495 696.01 573.495 695 574C693.932 572.035 692.934 570.031 692 568C693 566 693 566 694 565Z" fill="#F3D70B"/>
<path d="M590 395C593.375 395.547 595.082 396.055 598 398C595.188 398.625 595.188 398.625 592 399C591.01 398.34 590.02 397.68 589 397C589.33 396.34 589.66 395.68 590 395Z" fill="#EE960E"/>
<path d="M632 336C635.947 335.82 638.598 335.906 642 338C642 338.66 642 339.32 642 340C638.7 339.01 635.4 338.02 632 337C632 336.67 632 336.34 632 336Z" fill="#E94224"/>
<path d="M367 546C367 550.39 364.872 551.769 362 555C362 550.61 364.128 549.231 367 546Z" fill="#08C051"/>
<path d="M335 478C335 479.65 335 481.3 335 483C332.509 483.687 330.621 484 328 484C328.976 482.997 329.956 481.998 330.938 481C331.483 480.443 332.028 479.886 332.59 479.312C334 478 334 478 335 478Z" fill="#E9CA0B"/>
</svg>
